<svg id="svg" version="1.1" xmlns="http://www.w3.org/2000/svg" xmlns:xlink="http://www.w3.org/1999/xlink" width="100" height="100" viewBox="0, 0, 400,400"><g id="svgg"><path id="path0" d="M197.750 158.929 C 197.475 158.966,196.575 159.079,195.750 159.178 C 188.487 160.053,180.692 163.284,176.115 167.314 C 175.583 167.783,175.074 168.167,174.984 168.167 C 174.776 168.167,170.667 172.299,170.667 172.509 C 170.667 172.768,170.917 172.692,171.602 172.225 C 174.396 170.321,177.696 168.462,179.352 167.859 C 179.846 167.679,181.112 167.219,182.167 166.837 C 193.162 162.847,206.641 164.107,216.371 170.035 C 217.588 170.776,218.846 171.538,219.167 171.728 C 219.487 171.919,220.477 172.662,221.365 173.380 C 232.848 182.663,238.531 196.307,236.960 210.816 C 236.860 211.744,237.323 211.280,237.726 210.050 C 241.414 198.791,239.488 185.339,232.865 176.094 C 232.435 175.494,231.783 174.574,231.417 174.049 C 227.439 168.356,217.207 161.520,210.667 160.188 C 210.162 160.085,209.034 159.854,208.158 159.674 C 205.668 159.162,199.347 158.709,197.750 158.929
 " stroke="none" fill="#fcc404" fill-rule="evenodd"></path>
 <path id="path1" d="M190.667 179.255 C 189.979 179.385,189.065 179.605,188.635 179.745 C 188.206
  179.885,187.734 180.000,187.588 180.000 C 186.136 180.000,180.996 182.964,178.495
 185.243 C 175.914 187.595,175.760 188.236,178.031 187.172 C 187.675 182.653,200.120 
 184.209,208.510 190.982 C 211.157 193.120,212.337 194.353,214.551 197.297 C 215.688
  198.809,217.929 203.279,218.601 205.375 C 219.211 207.278,219.407 207.240,219.642 
  205.171 C 220.090 201.230,218.788 195.385,216.667 191.815 C 216.300 191.197,216.000 
  190.629,216.000 190.552 C 216.000 189.178,210.316 183.797,206.665 181.715 C 202.760 179.488,195.424 178.360,190.667 179.255 
  " stroke="none" fill="#047cc4" fill-rule="evenodd"></path><path id="path2" d="M191.583 168.162 C 189.295 168.371,186.958 168.809,184.750 169.441 C 182.977 169.948,181.700 170.430,178.101 171.951 C 176.870 172.471,173.753 174.344,172.235 175.475 C 171.601 175.947,170.783 176.554,170.417 176.824 C 169.284 177.658,165.667 181.261,165.667 181.555 C 165.667 181.969,165.807 181.909,167.092 180.944 C 167.738 180.458,168.401 180.010,168.564 179.947 C 168.727 179.884,169.624 179.397,170.556 178.863 C 184.008 171.161,202.426 172.306,214.871 181.620 C 216.911 183.147,219.251 185.111,219.839 185.792 C 220.137 186.135,220.877 186.945,221.484 187.591 C 222.478 188.649,223.186 189.547,224.630 191.583 C 228.166 196.571,230.717 203.100,231.692 209.667 C 232.033 211.958,232.074 219.314,231.751 220.292 C 231.663 220.560,231.694 220.667,231.859 220.667 C 232.696 220.667,234.586 210.679,234.445 207.000 C 234.170 199.824,232.207 192.648,229.216 187.885 C 228.719 187.093,228.168 186.163,227.992 185.818 C 227.589 185.027,225.272 182.091,223.933 180.674 C 215.397 171.636,203.574 167.064,191.583 168.162 M171.045 229.521 C 170.931 229.635,170.913 229.816,170.998 229.980 C 171.210 230.388,171.843 231.978,172.167 232.917 C 173.719 237.414,173.914 237.376,175.778 232.197 C 176.085 231.342,176.438 230.442,176.562 230.197 C 176.978 229.372,176.859 229.333,173.936 229.333 C 172.152 229.333,171.169 229.397,171.045 229.521 M188.634 229.958 C 188.803 230.302,189.533 231.802,190.256 233.292 C 191.692 236.247,191.702 236.255,192.250 234.750 C 192.416 234.292,192.953 232.968,193.443 231.808 C 193.933 230.649,194.333 229.618,194.333 229.517 C 194.333 229.390,193.404 229.333,191.330 229.333 L 188.327 229.333 188.634 229.958 " stroke="none" fill="#3cb406" fill-rule="evenodd"></path><path id="path3" d="M188.093 220.815 C 188.129 220.851,188.049 221.076,187.917 221.315 C 186.580 223.728,186.509 225.224,187.621 227.618 L 188.411 229.320 191.424 229.368 L 194.438 229.417 195.127 227.667 C 195.506 226.704,196.085 225.242,196.413 224.417 C 196.742 223.592,197.191 222.450,197.413 221.880 L 197.815 220.843 192.921 220.796 C 190.230 220.771,188.057 220.779,188.093 220.815 M167.333 220.891 C 167.333 220.918,167.633 221.642,168.000 222.500 C 168.367 223.358,168.667 224.127,168.667 224.209 C 168.667 224.673,170.924 229.643,171.069 229.498 C 171.327 229.240,176.665 229.281,176.672 229.542 C 176.680 229.823,178.501 225.582,179.244 223.550 C 179.573 222.652,179.950 221.675,180.083 221.379 L 180.324 220.841 173.829 220.841 C 170.256 220.842,167.333 220.864,167.333 220.891 " stroke="none" fill="#93d584" fill-rule="evenodd"></path><path id="path4" d="M182.225 190.792 C 182.083 191.135,181.609 192.242,181.173 193.250 C 180.736 194.258,180.321 195.271,180.250 195.500 C 180.179 195.729,179.231 197.995,178.144 200.536 C 177.056 203.077,176.167 205.200,176.167 205.254 C 176.167 205.382,174.371 209.599,174.048 210.231 L 173.801 210.712 173.053 209.064 C 172.641 208.158,172.021 206.704,171.674 205.833 C 171.328 204.963,170.903 203.950,170.729 203.583 L 170.414 202.917 165.369 202.873 C 161.120 202.835,160.310 202.866,160.233 203.067 C 160.140 203.309,160.500 204.259,162.827 209.917 C 163.543 211.658,164.523 214.096,165.004 215.333 C 165.485 216.571,165.981 217.749,166.106 217.952 C 166.231 218.155,166.333 218.400,166.333 218.495 C 166.333 218.590,166.521 219.057,166.750 219.532 C 166.979 220.007,167.167 220.494,167.167 220.615 C 167.167 220.735,167.260 220.834,167.375 220.835 C 171.176 220.874,180.238 220.818,180.301 220.755 C 180.429 220.627,181.184 218.834,182.690 215.083 C 183.426 213.250,184.891 209.625,185.945 207.027 C 187.415 203.405,187.836 202.200,187.752 201.860 C 187.692 201.616,186.795 199.354,185.758 196.833 C 184.721 194.313,183.696 191.781,183.479 191.208 C 183.007 189.959,182.622 189.831,182.225 190.792 M193.533 206.542 C 192.792 208.398,192.007 210.442,191.788 211.083 C 191.461 212.040,189.391 217.288,188.402 219.667 C 187.834 221.032,187.420 220.923,192.931 220.870 C 197.627 220.826,197.834 220.810,198.005 220.491 C 198.273 219.990,199.449 217.093,199.998 215.583 C 200.264 214.850,200.702 213.725,200.972 213.083 C 201.241 212.442,201.965 210.717,202.582 209.250 C 203.198 207.783,203.887 206.021,204.112 205.333 C 204.337 204.646,204.591 204.012,204.677 203.925 C 205.380 203.212,205.090 203.167,199.857 203.167 L 194.881 203.167 193.533 206.542 " stroke="none" fill="#f8fbf7" fill-rule="evenodd"></path></g></svg>